<svg width="60" height="60" xmlns="http://www.w3.org/2000/svg">
 <title/>

 <g>
  <title>background</title>
  <rect fill="none" id="canvas_background" height="402" width="582" y="-1" x="-1"/>
 </g>
 <g>
  <title>Layer 1</title>
  <path stroke="null" id="Google+" fill="#CA4638" d="m30,57.533506c15.559497,0 28.172966,-12.327173 28.172966,-27.533506c0,-15.206333 -12.613469,-27.533506 -28.172966,-27.533506c-15.559497,0 -28.172966,12.327173 -28.172966,27.533506c0,15.206333 12.613469,27.533506 28.172966,27.533506z"/>
  <path stroke="null" id="g+" fill="#FFFFFF" d="m28.296471,26.90544c0.818931,-0.783801 0.890576,-1.871453 0.890576,-2.484131c0,-2.447952 -1.53276,-6.257967 -4.492123,-6.257967c-0.926926,0 -1.924978,0.442544 -2.496035,1.123567c-0.605834,0.714211 -0.784688,1.631474 -0.784688,2.516066c0,2.27832 1.390522,6.054653 4.456568,6.054653c0.89137,-0.000247 1.854119,-0.408614 2.425702,-0.952189l0,0zm-1.03492,6.461784c-0.285269,-0.034679 -0.463588,-0.034679 -0.819458,-0.034679c-0.321092,0 -2.246588,0.068354 -3.743793,0.545074c-0.784153,0.272162 -3.065778,1.087644 -3.065778,3.502926c0,2.41478 2.459685,4.148776 6.274597,4.148776c3.422693,0 5.240462,-1.56387 5.240462,-3.672311c0,-1.735248 -1.176113,-2.652766 -3.88603,-4.489787l0,0zm10.455393,-3.44203l-3.858476,0l0,-1.840602l3.858476,0l0,-3.681188l1.929234,0l0,3.681188l3.858476,0l0,1.840602l-3.858476,0l0,3.681188l-1.929234,0l0,-3.681188zm-7.923795,-11.660071c0.819458,0.6466 2.531063,2.006661 2.531063,4.592317c0,2.517063 -1.497455,3.707485 -2.994401,4.829313c-0.463329,0.442296 -0.99883,0.918762 -0.99883,1.667142c0,0.748388 0.535501,1.156755 0.926666,1.462344l1.284099,0.951686c1.569109,1.25828 2.994401,2.41553 2.994401,4.762954c0,3.19634 -3.244374,6.428102 -9.376465,6.428102c-5.168558,0 -7.664333,-2.346674 -7.664333,-4.864232c0,-1.224598 0.641924,-2.958849 2.746008,-4.149781c2.209712,-1.292705 5.205166,-1.461339 6.808526,-1.564364c-0.49916,-0.612678 -1.069431,-1.259525 -1.069431,-2.312752c0,-0.578246 0.178328,-0.919009 0.356647,-1.326881c-0.392996,0.033682 -0.784162,0.068609 -1.141335,0.068609c-3.778303,0 -5.917423,-2.688195 -5.917423,-5.340458c0,-1.56387 0.748347,-3.299612 2.281366,-4.557893c2.032438,-1.598047 4.456309,-1.870209 6.381279,-1.870209l7.34376,0l-2.281617,1.223601l-2.20998,0l0,0.000502z"/>
 </g>
</svg>