<svg width="427.82" height="332.51" xmlns="http://www.w3.org/2000/svg">
 <title/>

 <g>
  <title>background</title>
  <rect fill="none" id="canvas_background" height="402" width="582" y="-1" x="-1"/>
 </g>
 <g>
  <title>Layer 1</title>
  <path fill="#ffffff" id="svg_1" d="m197.92,11.66l-19.65,0a5.47,5.47 0 0 0 -5.47,5.46l0,114.18a5.47,5.47 0 0 0 10.94,0l0,-16.91a157.74,157.74 0 0 0 47.26,45.29a5.46,5.46 0 1 0 5.77,-9.28a146.89,146.89 0 0 1 -49.56,-51.29l28.71,0a5.47,5.47 0 1 0 0,-10.93l-12.11,0l0,-19a3.94,3.94 0 0 1 7.88,0l0,5.89a5.47,5.47 0 0 0 10.93,0l0,-5.84a14.88,14.88 0 1 0 -29.75,0l0,19l-9.13,0l0,-65.64l8.71,0l0,9a5.47,5.47 0 0 0 5.47,5.46l19.65,0a5.47,5.47 0 0 0 5.43,-5.43l0,-9l8.72,0l0,71.02a3,3 0 0 0 0,0.31a5.61,5.61 0 0 0 0.06,0.59a4.37,4.37 0 0 0 0.12,0.52a4.74,4.74 0 0 0 0.15,0.5c0.07,0.19 0.16,0.36 0.24,0.54s0.08,0.19 0.13,0.28c15.36,26.5 38.17,45.28 67.81,55.83a5.31,5.31 0 0 0 1.83,0.32a5.46,5.46 0 0 0 1.94,-10.61c-26.67,-9.5 -47.26,-26.26 -61.27,-49.81l0,-75a5.47,5.47 0 0 0 -5.47,-5.46l-19.69,0a5.46,5.46 0 0 0 -5.46,5.46l0,9l-8.72,0l0,-9a5.47,5.47 0 0 0 -5.47,-5.45z"/>
  <path fill="#ffffff" id="svg_2" d="m341.46,93.64a5.45,5.45 0 0 0 -5.46,-5.46l-70.55,0a5.47,5.47 0 0 0 0,10.93l70.55,0a5.46,5.46 0 0 0 5.46,-5.47z"/>
  <path fill="#ffffff" id="svg_3" d="m115.32,106.14a5.46,5.46 0 0 0 5.46,-5.46l0,-95.21a5.46,5.46 0 0 0 -5.46,-5.47l-22,0a5.47,5.47 0 0 0 -5.47,5.47l0,15l-11,0l0,-15a5.46,5.46 0 0 0 -5.47,-5.47l-22,0a5.47,5.47 0 0 0 -5.47,5.47l0,15l-11,0l0,-15a5.46,5.46 0 0 0 -5.47,-5.47l-22,0a5.47,5.47 0 0 0 -5.44,5.47l0,39.43a5.47,5.47 0 0 0 10.93,0l0,-34l11.07,0l0,15.1a5.47,5.47 0 0 0 5.47,5.47l22,0a5.46,5.46 0 0 0 5.4,-5.47l0,-15l11,0l0,15a5.47,5.47 0 0 0 5.47,5.47l22,0a5.47,5.47 0 0 0 5.47,-5.47l0,-15l11,0l0,89.75a5.47,5.47 0 0 0 5.51,5.39z"/>
  <path fill="#ffffff" id="svg_4" d="m42.38,69.64l0,18.46a5.46,5.46 0 0 0 5.47,5.46l25.09,0a5.45,5.45 0 0 0 5.46,-5.46l0,-18.46a18,18 0 0 0 -36,0l-0.02,0zm25.11,0l0,13l-14.18,0l0,-13a7.08,7.08 0 0 1 14.16,0l0.02,0z"/>
  <path fill="#ffffff" id="svg_5" d="m305.19,169.24l-1.14,0.33a5.47,5.47 0 0 0 1.44,10.74a5.7,5.7 0 0 0 1.46,-0.2l1.31,-0.37a5.47,5.47 0 0 0 -3.07,-10.5z"/>
  <path fill="#ffffff" id="svg_6" d="m422.35,40l-19.65,0a5.47,5.47 0 0 0 -5.47,5.46l0,9l-8.72,0l0,-9a5.46,5.46 0 0 0 -5.46,-5.46l-19.65,0a5.47,5.47 0 0 0 -5.47,5.46l0,75.74c-1.2,3.89 -9.13,26.44 -34.6,40.6a5.46,5.46 0 0 0 2.67,10.2a5.41,5.41 0 0 0 2.65,-0.69a85.74,85.74 0 0 0 38.69,-43.9l48,0c-13.5,50 -49.23,74.9 -106.33,74.06a168,168 0 0 1 -80.63,-22.47a201.79,201.79 0 0 0 44.49,5.45q6,0 11.71,-0.47a5.46,5.46 0 1 0 -0.88,-10.89c-27.1,2.18 -59.73,-4 -97,-18.52c-23.88,-13.12 -43.91,-22.44 -58.2,-28.56a117.79,117.79 0 0 0 -46.58,-9.51l-71,0l0,-46.75a5.47,5.47 0 1 0 -10.92,0l0,50.6a5.16,5.16 0 0 0 0.08,0.8a5.29,5.29 0 0 0 -0.08,0.85l0,60.92c0,82.51 67.13,149.64 149.65,149.64l85.35,0c1.44,0 2.86,0 4.3,-0.07l0.28,0l138.22,0a5.47,5.47 0 1 0 0,-10.93l-68.87,0a193.94,193.94 0 0 0 52.85,-26.23a190.72,190.72 0 0 0 56.35,-62.88a77.74,77.74 0 0 0 9.69,-37.6l0,-149.42a5.47,5.47 0 0 0 -5.47,-5.43zm-53.49,10.9l8.72,0l0,9a5.47,5.47 0 0 0 5.47,5.47l19.65,0a5.46,5.46 0 0 0 5.46,-5.47l0,-9l8.73,0l0,65.59l-9.14,0l0,-18.95a14.88,14.88 0 1 0 -29.75,0l0,18.95l-9.14,0l0,-65.59zm28,131.18l-7.89,0l0,-84.54a3.95,3.95 0 1 1 7.89,0l0,84.54zm20.07,78.34a66.81,66.81 0 0 1 -8.32,32.3c-19.61,-30.31 -68.1,28.86 -173.61,28.86l-85.35,0c-76.49,0 -138.72,-62.23 -138.72,-138.71l0,-55.45l71,0a106.84,106.84 0 0 1 42.28,8.63c20.66,8.84 53.52,24.5 92.74,48.86c28.2,17.51 60,27 91.91,27.51c37.91,0.54 84.32,-9.9 108,-57.86l0.07,105.86z"/>
  <path fill="#ffffff" id="svg_7" d="m87.24,187.58a5.47,5.47 0 1 0 10.93,0l0,-10.28l17.15,0a5.47,5.47 0 0 0 0,-10.93l-75.38,0a5.47,5.47 0 1 0 0,10.93l47.3,0l0,10.28z"/>
  <path fill="#ffffff" id="svg_8" d="m146.61,208.85a5.47,5.47 0 0 0 -5.47,-5.47l-83.09,0a5.47,5.47 0 0 0 0,10.93l83.09,0a5.46,5.46 0 0 0 5.47,-5.46z"/>
  <path fill="#ffffff" id="svg_9" d="m144.22,255.52l-35.88,0l0,-14.22a5.47,5.47 0 0 0 -10.94,0l0,14.22l-16.19,0a5.47,5.47 0 0 0 0,10.93l63,0a5.47,5.47 0 0 0 0,-10.93l0.01,0z"/>
  <path fill="#ffffff" id="svg_10" d="m181,203.38l-9.54,0a5.47,5.47 0 1 0 0,10.93l9.54,0a5.47,5.47 0 1 0 0,-10.93z"/>
  <path fill="#ffffff" id="svg_11" d="m180.44,227.56a5.47,5.47 0 0 0 -5.44,5.44l0,21.26a5.47,5.47 0 1 0 10.93,0l0,-21.26a5.47,5.47 0 0 0 -5.49,-5.44z"/>
  <path fill="#ffffff" id="svg_12" d="m329.41,242.68c-1.32,0.35 -2.71,0.67 -4.13,1a5.46,5.46 0 0 0 1.13,10.81a5.52,5.52 0 0 0 1.14,-0.12c1.59,-0.34 3.15,-0.71 4.64,-1.1a5.46,5.46 0 1 0 -2.78,-10.57l0,-0.02z"/>
  <path fill="#ffffff" id="svg_13" d="m295.17,246.29a277.81,277.81 0 0 1 -51.23,-5.56a5.47,5.47 0 0 0 -2.37,10.68c0.47,0.1 5.68,1.24 13.76,2.48l-0.69,9.29a5.46,5.46 0 0 0 5.05,5.85l0.41,0a5.46,5.46 0 0 0 5.44,-5.06l0.64,-8.63a268.08,268.08 0 0 0 28.92,1.87l0,0a5.47,5.47 0 0 0 0,-10.94l0.07,0.02z"/>
  <path fill="#ffffff" id="svg_14" d="m268.28,282.56c-21,1 -53.92,0.23 -54.25,0.23a5.47,5.47 0 1 0 -0.24,10.93c0.2,0 12.27,0.27 26.52,0.27c9.48,0 19.92,-0.12 28.46,-0.51a5.47,5.47 0 1 0 -0.49,-10.92z"/>
  <path fill="#ffffff" id="svg_15" d="m415.8,321.54l-6.3,0a5.47,5.47 0 1 0 0,10.93l6.3,0a5.47,5.47 0 0 0 0,-10.93z"/>
 </g>
</svg>