<svg width="512" height="512" xmlns="http://www.w3.org/2000/svg">

 <g>
  <title>background</title>
  <rect fill="none" id="canvas_background" height="402" width="582" y="-1" x="-1"/>
 </g>
 <g>
  <title>Layer 1</title>
  <path id="svg_2" stroke-width="8" stroke-miterlimit="10" stroke-linejoin="round" stroke-linecap="round" stroke="#000000" fill="none" d="m113,170l-61.197,0c-8.729,0 -15.803,7.236 -15.803,15.965l0,137.962c0,8.718 7.074,16.073 15.803,16.073l61.197,0"/>
  <line id="svg_3" y2="323" y1="186" x2="119" x1="119" stroke-width="8" stroke-miterlimit="10" stroke-linejoin="round" stroke-linecap="round" stroke="#000000" fill="none"/>
  <line id="svg_4" y2="49.319" y1="172.543" x2="252.419" x1="129.206" stroke-width="8" stroke-miterlimit="10" stroke-linejoin="round" stroke-linecap="round" stroke="#000000" fill="none"/>
  <line id="svg_5" y2="462.16" y1="338.936" x2="252.419" x1="129.206" stroke-width="8" stroke-miterlimit="10" stroke-linejoin="round" stroke-linecap="round" stroke="#000000" fill="none"/>
  <path id="svg_6" stroke-width="8" stroke-miterlimit="10" stroke-linejoin="round" stroke-linecap="round" stroke="#000000" fill="none" d="m265.58,446.629"/>
  <path id="svg_7" stroke-width="8" stroke-miterlimit="10" stroke-linejoin="round" stroke-linecap="round" stroke="#000000" fill="none" d="m265.58,65.382"/>
  <path id="svg_8" stroke-width="8" stroke-miterlimit="10" stroke-linejoin="round" stroke-linecap="round" stroke="#000000" fill="none" d="m253.715,49.311c21.258,0 38.285,17.24 38.285,38.511l0,336.346c0,21.28 -17.146,38.521 -38.403,38.521"/>
  <line id="svg_9" y2="442" y1="71" x2="252" x1="252" stroke-width="8" stroke-miterlimit="10" stroke-linejoin="round" stroke-linecap="round" stroke="#000000" fill="none"/>
  <path id="svg_10" stroke-width="8" stroke-miterlimit="10" stroke-linejoin="round" stroke-linecap="round" stroke="#000000" fill="none" d="m323.125,183.086c39.704,0 71.861,32.167 71.861,71.859s-32.157,71.87 -71.861,71.87"/>
  <path id="svg_11" stroke-width="8" stroke-miterlimit="10" stroke-linejoin="round" stroke-linecap="round" stroke="#000000" fill="none" d="m359.066,138.013c64.574,0 116.934,52.346 116.934,116.933c0,64.585 -52.359,116.944 -116.934,116.944"/>
 </g>
</svg>