<svg width="60" height="65" xmlns="http://www.w3.org/2000/svg">

 <g>
  <title>background</title>
  <rect fill="none" id="canvas_background" height="67" width="62" y="-1" x="-1"/>
 </g>
 <g>
  <title>Layer 1</title>
  <path id="svg_4" fill="#E2E4E5" d="m55.045735,11.851715c-2.006,-2.006 -5.008,-1.918 -6.891,-0.034l6.857,6.857c1.969,-1.969 1.861,-4.995 0.034,-6.823z"/>
  <path id="svg_6" fill="#FFFFFF" d="m48.153735,11.817715l3.493,3.493l3.425,-3.425c-1.876,-1.966 -4.98,-2.032 -6.918,-0.068z"/>
  <path id="svg_7" fill="#CFD3D4" d="m51.577735,18.679715l1.719,-1.719l-3.429,-3.428l-1.639,1.639c1.215,1.07 2.335,2.244 3.349,3.508z"/>
  <path id="svg_8" fill="#CFD3D4" d="m29.725735,8.177715c1.358,0 2.693,0.102 4,0.289l0,-3.289l-8,0l0,3.289c1.307,-0.187 2.642,-0.289 4,-0.289z"/>
  <circle id="svg_10" fill="#FFFFFF" r="28" cy="36.177715" cx="29.725735"/>
  <circle id="svg_12" fill="#9CE5F4" r="23" cy="36.377715" cx="29.725735"/>
  <path id="svg_14" fill="#C9F2F8" d="m6.725735,36.377715c0,12.702 10.297,23 23,23l0,-46c-12.703,0 -23,10.298 -23,23z"/>
  <path id="svg_16" fill="#DF2C2C" d="m29.725735,30.177715c-3.503,-8 -13,-5.476 -13,3.553c0.179,8.22 13,14.447 13,14.447s12.822,-6.227 13,-14.447c0,-9.029 -9.503,-10.553 -13,-3.553z"/>
  <path id="svg_18" fill="#E2E4E5" d="m37.725735,6.177715l-16,0l0,-2.104c0,-1.53 1.241,-2.896 2.771,-2.896l10.458,0c1.53,0 2.771,1.366 2.771,2.896l0,2.104z"/>
  <path id="svg_20" fill="#FFFFFF" d="m29.725735,1.177715l-5.229,0c-1.531,0 -2.771,1.366 -2.771,2.896l0,2.104l8,0l0,-5z"/>
 </g>
</svg>