<svg width="19" height="19" xmlns="http://www.w3.org/2000/svg">

 <g>
  <title>background</title>
  <rect fill="none" id="canvas_background" height="21" width="21" y="-1" x="-1"/>
 </g>
 <g>
  <title>Layer 1</title>
  <path stroke-miterlimit="10" stroke-linejoin="round" stroke-linecap="round" stroke-width="0.7" stroke="#303030" fill="none" id="svg_3" d="m3.74736,10.109941l5.75264,5.75264l5.74645,-5.75264l0.03715,-0.03096c0.79261,-0.79261 1.18892,-1.83292 1.18892,-2.87322c0,-1.0403 -0.39631,-2.08061 -1.18892,-2.87941c-1.59142,-1.58523 -4.16122,-1.58523 -5.75264,0l-0.03096,0.03714l-0.03715,-0.03715c-1.58523,-1.58523 -4.16122,-1.58523 -5.74645,0c-0.79261,0.79881 -1.18892,1.83911 -1.18892,2.87941c0,1.04031 0.39631,2.08061 1.18892,2.87322l0.03096,0.03097l5.75264,5.75264l5.74645,-5.75264" class="st1"/>
 </g>
</svg>