<?xml version="1.0" ?><!DOCTYPE svg  PUBLIC '-//W3C//DTD SVG 1.1//EN'  'http://www.w3.org/Graphics/SVG/1.1/DTD/svg11.dtd'><svg enable-background="new 0 0 1010 1010" id="coffee-heart" version="1.1" viewBox="0 0 1010 1010" xml:space="preserve" xmlns="http://www.w3.org/2000/svg" xmlns:xlink="http://www.w3.org/1999/xlink"><g id="coffee-heart-label"><path d="M505,0C226.106,0,0,226.1255,0,504.9805C0,783.8945,226.106,1010,505,1010   c278.875,0,505-226.1055,505-505.0195C1010,226.1255,783.875,0,505,0z" fill="#F6BBBB"/></g><g id="coffee-heart-coffee-heart"><g id="coffee-heart-color"><g><path d="M607.874,410.9238l-1.0059-9.3305C601.2656,349.3965,557.4727,310.042,505,310.042     s-96.2656,39.3545-101.873,91.5513l-0.9961,9.3305h-59.9834l0.7299-11.1259C348.4746,314.54,419.6826,247.7559,505,247.7559     s156.5303,66.7841,162.1426,152.042l0.7402,11.1259H607.874z" fill="#FAD6D6"/></g><g><path d="M401.9092,410.9238l1.5683-11.8164C410.1992,348.3315,453.8442,310.042,505,310.042     c51.1807,0,94.8262,38.2895,101.5234,89.0654l1.5674,11.8164H401.9092z" fill="#FED78F"/></g><g><rect fill="#F05354" height="35.5869" width="379.5439" x="315.2256" y="410.9238"/></g><g><path d="M546.5645,673.0312l13.5019-29.5703c3.2949-7.1904,4.9619-14.7754,4.9619-22.5576     c0-8.749-2.0615-17.1621-6.1357-25.0234l-15.8399-30.4971h124.3858l-16.8662,107.6484H546.5645z" fill="#FED78F"/></g><g><path d="M366.1597,673.0312l-20.0962-107.6484h131.7187l-15.8403,30.5176     c-4.0689,7.8408-6.1299,16.2539-6.1299,25.0029c0,7.7822,1.6616,15.3672,4.9463,22.5381l13.5078,29.5898H366.1597z" fill="#FED78F"/></g><g><polygon fill="#FFFFFF" points="401.9932,808 374.8442,662.5859 641.6465,662.5859 618.8711,808    "/></g><g><path d="M557.3447,575.8281l-2.999-2.7519c-12.082-11.1154-27.6855-17.2412-43.9258-17.2412     c-16.2451,0-31.8437,6.1259-43.9258,17.2412l-3.0039,2.7519H358.6484l-24.1547-129.3174H675.457l-20.2392,129.3174H557.3447z" fill="#FFFFFF"/></g></g><path d="M704.8691,400.8242h-27.5673c-3.2647-58.3218-35.7344-109.0293-82.9503-137.8398l30.1816-56.211   c2.6338-4.9116,0.7988-11.0366-4.1133-13.6699c-4.9316-2.6631-11.0469-0.8091-13.6797,4.1226l-30.2011,56.2505   c-21.8672-10.0508-46.0528-15.8208-71.5391-15.8208c-91.6201,0-167.2217,72.5444-172.2769,163.1684H305.126v55.7862h20.9839   l67.4995,361.4892h233.9023l56.586-361.4892h20.7714V400.8242z M657.0918,400.8242h-40.1631   c-3.6494-34.9853-23.5342-65.2461-51.8808-83.2759l19.7558-36.7802C625.7168,306.1167,653.877,350.1562,657.0918,400.8242z    M413.4194,400.8242c5.8145-45.3613,44.8238-80.6816,91.5806-80.6816c11.4316,0,22.3506,2.1992,32.4902,6.0459l-40.0752,74.6357   H413.4194z M555.5,335.332c22.0547,14.5088,37.5889,38.1709,41.0801,65.4922h-76.2422L555.5,335.332z M505,257.8555   c22.0449,0,42.9941,4.8628,61.9805,13.4043l-19.8448,36.9775c-13.0488-5.3164-27.2617-8.2949-42.1357-8.2949   c-57.8677,0-106.0205,44.3847-111.9287,100.8818H352.938C357.958,321.3159,424.4663,257.8555,505,257.8555z M325.3257,421.0239   h359.3441v15.3867H325.3257V421.0239z M646.5781,565.7285h-88.2469v20.1992h85.081l-10.416,66.5577h-95.5654v20.2001h92.3994   l-19.5987,125.2149H410.3867l-23.3808-125.2149h76.6621v-20.2001h-80.4351l-12.4277-66.5577h92.8628v-20.1992h-96.6358   l-20.3769-109.1181h317.0058L646.5781,565.7285z" fill="#313233"/><g><path d="M505,589.4492c0-25.3486,20.5352-45.9033,45.9141-45.9033c25.3681,0,45.9326,20.5547,45.9326,45.9033    c0,13.3252-5.75,25.1612-14.7744,33.5947h0.1279L505,700.2734l-77.249-77.2295c0.0293,0,0.0493,0,0.0791-0.04    c-9.0054-8.4033-14.6817-20.2295-14.6817-33.5547c0-25.3486,20.5401-45.9033,45.9283-45.9033    C484.4102,543.5459,505,564.1006,505,589.4492z" fill="#F05354"/><path d="M505,710.373c-2.6777,0-5.2471-1.0654-7.1406-2.9589l-77.2495-77.2295    c-0.2564-0.257-0.4981-0.5225-0.7203-0.799c-10.874-10.662-16.8413-24.7861-16.8413-39.9365    c0-30.8818,25.1363-56.0039,56.0284-56.0039c18.977,0,35.7837,9.4785,45.9233,23.958    c10.1396-14.4795,26.9365-23.958,45.9141-23.958c30.9013,0,56.0332,25.1221,56.0332,56.0039    c0,15.0811-5.9776,29.1953-16.8661,39.917c-0.2373,0.2861-0.4737,0.5518-0.7403,0.8184l-77.2003,77.2295    C510.2471,709.3076,507.6826,710.373,505,710.373L505,710.373z M435.834,616.8398L505,685.9912l69.0625-69.1025    c0.3359-0.4337,0.7109-0.838,1.1152-1.2227c7.4659-6.9736,11.5694-16.2842,11.5694-26.2168    c0-19.7461-16.0771-35.8037-35.833-35.8037c-19.746,0-35.8145,16.0576-35.8145,35.8037c0,5.583-4.5215,10.0996-10.0996,10.0996    c-5.5776,0-10.0996-4.5166-10.0996-10.0996c0-19.7461-16.0723-35.8037-35.8237-35.8037    c-19.7564,0-35.8287,16.0576-35.8287,35.8037c0,9.9717,4.0738,19.2637,11.4712,26.168    C435.1289,616.001,435.5034,616.416,435.834,616.8398L435.834,616.8398z" fill="#313233"/></g></g></svg>