<svg width="128" height="128" xmlns="http://www.w3.org/2000/svg">

 <g>
  <title>background</title>
  <rect fill="none" id="canvas_background" height="402" width="582" y="-1" x="-1"/>
 </g>
 <g>
  <title>Layer 1</title>
  <circle fill="#e6a54e" id="svg_2" r="64" cy="64" cx="64"/>
  <path fill="#ffffff" id="svg_3" d="m60.5,38l-22.5,14l-10,0c-2.2,0 -4,1.8 -4,4l0,16c0,2.2 1.8,4 4,4l10,0l22.5,14c0.6,0.5 1.5,0 1.5,-0.8l0,-50.4c0,-0.7 -0.8,-1.2 -1.5,-0.8z" class="st0"/>
  <path fill="#ffffff" id="svg_5" d="m87.7,96.8l-1.3,-1.5c-0.4,-0.4 -0.3,-1 0.1,-1.4c8.6,-7.6 13.5,-18.4 13.5,-29.9c0,-11.8 -5.1,-22.9 -14.1,-30.5c-0.2,-0.1 -0.5,-0.4 -0.9,-0.7s-0.5,-0.9 -0.2,-1.3l1.1,-1.7c0.3,-0.5 1,-0.6 1.4,-0.2c0.5,0.4 1,0.8 1,0.8c10,8.4 15.7,20.6 15.7,33.6c0,12.6 -5.4,24.6 -14.8,33c-0.5,0.3 -1.1,0.3 -1.5,-0.2z" class="st0"/>
  <path fill="#ffffff" id="svg_7" d="m79.1,88.3l-1.2,-1.6c-0.3,-0.4 -0.3,-1 0.2,-1.4c6.3,-5.3 9.9,-13 9.9,-21.3s-3.6,-16 -10,-21.3c-0.4,-0.3 -0.5,-1 -0.2,-1.4l1.2,-1.6c0.3,-0.4 1,-0.5 1.4,-0.2c7.4,6.2 11.6,15 11.6,24.5s-4.2,18.3 -11.5,24.4c-0.4,0.4 -1,0.3 -1.4,-0.1z" class="st0"/>
  <path fill="#ffffff" id="svg_9" d="m69.6,78.2c-0.4,-0.4 -0.3,-1.1 0.1,-1.4c4,-3.1 6.3,-7.8 6.3,-12.7c0,-5.1 -2.3,-9.8 -6.3,-12.7c-0.4,-0.3 -0.5,-1 -0.2,-1.4l1.3,-1.5c0.3,-0.4 0.9,-0.5 1.4,-0.2c4.9,3.5 7.8,9.4 7.8,15.7c0,6.1 -2.9,11.9 -7.7,15.8c-0.4,0.3 -1,0.3 -1.4,-0.1l-1.3,-1.5z" class="st0"/>
 </g>
</svg>